<svg width="30" height="30" viewBox="0 0 30 30" fill="none" xmlns="http://www.w3.org/2000/svg">
<path d="M30 14.9999C30 23.2843 23.2842 30 15 30C6.71577 30 0 23.2843 0 14.9999C0 6.71573 6.71577 1.34936e-07 15 1.34936e-07C23.2842 1.34936e-07 30 6.71573 30 14.9999Z" fill="#E26F9C"/>
<path d="M23.4842 16.0105C22.4953 16.617 21.3204 16.7256 19.8039 16.3557C19.7535 16.3357 19.703 16.3236 19.6713 16.3219C19.0397 16.1595 18.4144 15.9331 17.9275 15.7474C17.9456 15.5271 17.9442 15.2952 17.923 15.0556C18.835 14.8123 19.7421 14.5158 20.6212 14.1732C20.8324 14.0907 20.9732 13.9153 21.0074 13.692C21.0422 13.4642 20.9588 13.2321 20.7953 13.1011C20.6508 12.9855 20.4667 12.9622 20.2761 13.0366C19.428 13.3671 18.5486 13.6558 17.6597 13.8949C17.5643 13.6425 17.4492 13.4107 17.3164 13.203C18.0573 12.0323 18.8991 10.7166 20.1589 9.98606C20.9778 9.51071 21.9698 9.40492 22.8799 9.69742C23.7859 9.98816 24.5272 10.6467 24.9134 11.5037C25.6443 13.1249 25.03 15.0626 23.4842 16.0105ZM22.5145 20.8027C22.5546 22.1988 21.6693 23.5736 20.2595 24.3043C19.5172 24.6896 18.7404 24.7662 18.0137 24.5266C17.1898 24.2549 16.4904 23.6039 16.0447 22.694C15.9028 22.4041 15.79 22.0971 15.7 21.7559C15.7373 21.5736 15.6967 21.3849 15.59 21.246C15.4322 20.3605 15.4406 19.4145 15.4674 18.5815C15.7546 18.519 16.0308 18.4161 16.2918 18.2755C16.9639 18.9265 17.5643 19.6338 18.0759 20.378C18.202 20.5615 18.3962 20.6551 18.619 20.64C18.8471 20.6216 19.0541 20.4857 19.1457 20.2925C19.2278 20.1203 19.2081 19.9308 19.0904 19.7595C18.53 18.9444 17.8992 18.1899 17.214 17.515C17.3756 17.3213 17.511 17.1148 17.6187 16.8973C18.2624 17.1405 18.8474 17.3257 19.4035 17.4625C19.4226 17.4735 19.4424 17.4842 19.465 17.4938C21.0181 18.1375 22.4627 18.984 22.5145 20.8027V20.8027ZM14.5506 17.463C14.3364 17.4343 14.1324 17.3705 13.9429 17.2726C13.5157 17.0523 13.2023 16.6703 13.0601 16.1968C12.8974 15.6555 12.9659 15.0559 13.2479 14.5524C13.3025 14.4548 13.3292 14.3509 13.3269 14.2481C13.6858 13.7621 14.2163 13.3988 14.7903 13.2472C15.4746 13.0659 15.9238 13.3822 16.1801 13.6791C16.732 14.3178 16.9238 15.4987 16.599 16.2581C16.3445 16.8538 15.8294 17.2889 15.2146 17.4316C15.0125 17.3194 14.7433 17.3322 14.5506 17.463V17.463ZM14.2969 20.816C14.3823 22.6371 12.8939 24.1475 11.4055 24.5558C10.0572 24.9262 8.89786 24.4125 8.22546 23.1478C7.63101 22.0291 7.52679 21.0131 7.91562 20.1284C8.6446 18.4699 10.9021 17.6317 12.2578 17.2673C12.3403 17.4013 12.434 17.5288 12.5373 17.6485C12.4946 17.6951 12.4588 17.7509 12.4315 17.815C12.1896 18.3829 11.763 18.9136 11.3507 19.4268C11.1907 19.6259 11.0331 19.8217 10.8886 20.0167C10.7674 20.1801 10.741 20.3633 10.8142 20.5319C10.897 20.7236 11.0988 20.8644 11.3277 20.8906C11.554 20.9166 11.7612 20.8265 11.8968 20.6437C12.0392 20.4515 12.1945 20.2587 12.3518 20.0629C12.7769 19.5339 13.2165 18.9873 13.4749 18.3815C13.4775 18.375 13.4801 18.3687 13.4826 18.3624C13.5288 18.3846 13.5733 18.4041 13.6174 18.4221C13.8268 18.5069 14.0501 18.5691 14.2818 18.6081C14.2648 19.3973 14.2802 20.0133 14.3312 20.5845C14.3047 20.6561 14.2932 20.7341 14.2969 20.816V20.816ZM12.3182 13.8083V13.8085V13.8083ZM6.80325 16.2459C5.07872 15.4155 4.31384 13.3869 5.06226 11.6283C5.46808 10.6751 6.28393 9.89709 7.24497 9.54661C7.61559 9.41122 7.99549 9.34414 8.37066 9.34414C8.85618 9.34414 9.33399 9.45694 9.77501 9.68025C11.1965 10.401 12.0439 11.9024 12.7216 13.1393C12.5755 13.295 12.4387 13.4673 12.3122 13.6537L9.56711 12.9643C9.35641 12.9119 9.15306 12.9673 9.00856 13.1163C8.85197 13.2778 8.7898 13.5192 8.85005 13.7313C8.90452 13.922 9.05287 14.0611 9.25745 14.1124L11.7894 14.748C11.6985 15.0622 11.6544 15.3768 11.6582 15.6854C11.66 15.831 11.7088 15.9613 11.7975 16.0616C11.7255 16.0576 11.6472 16.0686 11.5694 16.0953C10.195 16.5724 8.41095 17.0202 6.80325 16.2459V16.2459ZM17.1597 13.1725L17.1592 13.1722L17.1597 13.1725ZM13.1736 4.94966C13.7523 4.39164 14.4888 4.11087 15.3101 4.15186C16.124 4.18724 16.8229 4.523 17.3306 5.12323C17.9641 5.87147 18.2601 6.98594 18.1226 8.10374C17.9477 9.52419 17.3735 10.9359 16.416 12.3024C16.2256 12.1907 16.0214 12.1078 15.8058 12.0553C15.7956 11.3309 15.7718 10.6658 15.7331 10.0239C15.7287 9.95103 15.7268 9.87677 15.7247 9.80286C15.7143 9.40579 15.7024 8.95584 15.2991 8.67472C15.0668 8.51341 14.7934 8.53793 14.6016 8.73795C14.4238 8.92343 14.3385 9.25692 14.5184 9.52332C14.6431 10.1118 14.6326 10.7868 14.6223 11.44C14.6191 11.6465 14.6158 11.8486 14.6172 12.0432C14.3536 12.0956 14.0947 12.1824 13.8439 12.3022C13.0239 10.9168 12.0994 9.34835 12.0891 7.68443C12.0828 6.63179 12.4883 5.60945 13.1736 4.94966V4.94966ZM26.0184 11.0303C25.2232 9.22749 23.2314 8.10672 21.2822 8.36401C20.5378 8.46244 19.8458 8.74005 19.1778 9.20963C19.4191 8.22442 19.4603 7.2956 19.2998 6.44298C18.9376 4.51722 17.2269 3.02145 15.3211 2.9633C13.4381 2.91023 11.7293 4.13084 11.1487 5.94135C10.8319 6.93024 10.8158 7.9743 11.1025 9.12048C10.407 8.5875 9.66782 8.27643 8.85583 8.17275C6.8593 7.92106 4.80006 9.17495 3.95531 11.161C3.16118 13.0275 3.67805 15.2759 5.21254 16.6284C6.00509 17.3276 6.98908 17.7273 8.14262 17.8199C7.57373 18.2648 7.13848 18.7694 6.84598 19.3246C5.96883 20.9907 6.63353 23.2256 7.74345 24.5726C8.4705 25.4548 9.4431 25.9241 10.5222 25.9241C10.6867 25.9241 10.8536 25.9134 11.0221 25.8913C12.594 25.6864 14.1271 24.5739 14.9311 23.0816C15.1976 23.6797 15.5453 24.1901 15.9879 24.6346C17.4159 26.0701 19.4205 26.256 21.2189 25.1208C22.9212 24.0465 23.8835 22.1792 23.6702 20.3634C23.5435 19.2865 23.0556 18.4062 22.1816 17.6824C23.1241 17.5621 23.9572 17.2081 24.6627 16.627C26.3144 15.2656 26.8721 12.9641 26.0184 11.0303" fill="white"/>
</svg>
