<svg width="31" height="31" viewBox="0 0 31 31" fill="none" xmlns="http://www.w3.org/2000/svg">
<path d="M30.5937 15.5391C30.5937 23.8233 23.878 30.5391 15.5937 30.5391C7.30952 30.5391 0.59375 23.8233 0.59375 15.5391C0.59375 7.25483 7.30952 0.539063 15.5937 0.539063C23.878 0.539063 30.5937 7.25483 30.5937 15.5391Z" fill="#775136"/>
<path d="M24.2732 15.291L16.4751 14.4336C16.7887 11.7192 17.1502 9.00276 17.5499 6.3573C18.4831 6.44224 19.4213 6.52229 20.3405 6.59462C20.3738 7.16053 20.4906 7.80613 20.6658 8.39534L20.6314 8.39096C20.0619 8.31442 19.353 8.21931 18.9528 8.58643C18.55 8.95582 18.5547 9.73138 18.5584 10.3547C18.5594 10.5371 18.5607 10.7096 18.5505 10.8469C18.5409 10.9798 18.5221 11.1243 18.5027 11.2751C18.4256 11.8712 18.3382 12.5466 18.7106 13.0102C19.1527 13.5609 19.8564 13.5155 20.4855 13.3992C20.6733 13.3643 20.8083 13.2559 20.866 13.0936C20.9317 12.9082 20.8824 12.6744 20.7432 12.5112C20.6078 12.3525 20.4104 12.2847 20.2029 12.3222C20.0055 12.3586 19.8615 12.3304 19.7615 12.2346C19.4783 11.9637 19.5867 11.1821 19.6583 10.6648C19.6804 10.5061 19.6995 10.3689 19.7077 10.2572L19.7506 9.63768C19.7326 9.52295 19.7475 9.46515 19.7674 9.44956C19.7876 9.4331 19.847 9.43275 19.9543 9.47759L19.9785 9.48775L20.0042 9.48127C20.188 9.43625 20.4679 9.47636 20.7145 9.51227C20.8348 9.52996 20.9485 9.5466 21.0469 9.55273C21.073 9.55465 21.0996 9.5543 21.1273 9.55203C21.638 10.5222 22.3029 11.001 23.055 10.9469C23.1536 11.7116 23.7538 12.3096 24.5513 12.436L24.2732 15.291ZM23.4063 24.1889C20.8379 24.028 18.2133 23.7991 15.6029 23.5085C15.8027 20.894 16.0543 18.2121 16.3508 15.5346L24.1656 16.3941L23.4063 24.1889ZM11.4948 13.8973C10.2034 13.7609 8.91253 13.6244 7.66967 13.4882C7.79245 12.4502 7.9401 11.3953 8.08302 10.3747C8.31212 8.73828 8.54874 7.04774 8.69061 5.37874C11.1879 5.70276 13.7968 5.99579 16.4469 6.24993C16.0481 8.90432 15.6873 11.616 15.375 14.3128C14.1145 14.1742 12.8044 14.0357 11.4948 13.8973ZM14.4988 23.3824C11.8692 23.0715 9.24356 22.6972 6.69128 22.2689C6.92545 20.7262 7.07556 19.1576 7.22076 17.6397C7.31639 16.6398 7.41517 15.6063 7.53743 14.5878L15.2501 15.4138C14.952 18.0941 14.6993 20.7744 14.4988 23.3824V23.3824ZM25.625 11.5417C25.4927 11.364 25.2929 11.2869 25.0727 11.331C24.58 11.2459 24.277 11.0958 24.1723 10.8839C24.098 10.7338 24.122 10.5411 24.2472 10.302C24.3233 10.1036 24.2628 9.88954 24.0901 9.74382C23.8978 9.58233 23.6269 9.54993 23.4314 9.66622C22.9143 9.97151 22.3714 9.47566 22.132 9.13394C21.9151 8.8241 21.7782 8.43597 21.6626 8.06238C21.4839 7.48578 21.4154 6.86838 21.4473 6.11927C21.4615 5.77703 21.2107 5.60223 20.9648 5.58016C20.894 5.5418 20.8164 5.51938 20.7334 5.5129C16.706 5.20183 12.6038 4.77534 8.54331 4.24499C8.08249 4.16968 8.02434 4.19402 7.852 4.31085L7.82222 4.33186C7.64725 4.41856 7.62395 4.64924 7.61099 4.76781C7.60854 4.77902 7.60626 4.79058 7.60521 4.80302C7.3875 7.504 6.82912 11.578 6.3366 15.1722C5.45945 21.571 5.27694 23.1878 5.56209 23.2368C11.4611 24.252 17.5996 24.9561 23.8074 25.3295C23.8202 25.3302 23.8328 25.3306 23.8453 25.3306C24.0094 25.3306 24.1483 25.2644 24.2408 25.1416C24.3728 25.044 24.4513 24.9043 24.4676 24.7361L25.6931 12.1532C25.7877 11.968 25.7612 11.7248 25.625 11.5417" fill="white"/>
<path d="M11.4984 13.8606C12.7525 13.9928 14.0817 14.1333 15.3422 14.272C15.6517 11.6022 16.009 8.91488 16.4043 6.28343C13.7748 6.03051 11.1915 5.74046 8.72402 5.42064C8.58162 7.08159 8.34657 8.75812 8.11958 10.38C7.97875 11.3847 7.83338 12.423 7.71078 13.4555C8.95329 13.5916 10.2469 13.7282 11.4984 13.8606ZM15.4074 14.3538L15.3708 14.3498C14.0995 14.21 12.7568 14.0681 11.4907 13.9343C10.2265 13.8009 8.91948 13.6627 7.66524 13.525L7.62793 13.521L7.63248 13.4838C7.75631 12.4384 7.90362 11.3866 8.04584 10.3695C8.27476 8.7364 8.51139 7.04708 8.65343 5.37563L8.65676 5.33692L8.69512 5.342C11.1856 5.66515 13.7948 5.95835 16.4502 6.21302L16.4893 6.21652L16.4835 6.25558C16.0843 8.91067 15.7239 11.6232 15.4116 14.3174L15.4074 14.3538ZM16.5161 14.4009L24.2397 15.25L24.5106 12.4667C23.727 12.3284 23.1352 11.7393 23.0229 10.9862C22.2713 11.0281 21.6124 10.5422 21.1054 9.59078C21.0842 9.59113 21.064 9.59113 21.0437 9.58973C20.9426 9.58342 20.8237 9.56591 20.7088 9.5491C20.4781 9.51494 20.1912 9.47413 20.0128 9.51722L19.9755 9.52703L19.9396 9.51179C19.824 9.4638 19.7902 9.47886 19.7898 9.47886C19.7847 9.48499 19.7707 9.5286 19.7872 9.63177L19.7444 10.2599C19.7359 10.3762 19.7159 10.5189 19.695 10.6702C19.6243 11.1797 19.5173 11.9499 19.787 12.2075C19.8772 12.2944 20.0101 12.3194 20.1962 12.2856C20.4177 12.2454 20.6279 12.3194 20.7712 12.4871C20.9188 12.6599 20.9708 12.9086 20.9008 13.106C20.8386 13.2815 20.6936 13.3985 20.4922 13.4357C19.8516 13.5541 19.1354 13.5991 18.6815 13.0335C18.2991 12.5576 18.3876 11.8737 18.4655 11.2706L18.4672 11.257C18.4862 11.1104 18.504 10.972 18.5133 10.8443C18.5231 10.7109 18.5221 10.5429 18.521 10.3646V10.355C18.5173 9.72442 18.5124 8.93975 18.9274 8.55897C19.3355 8.18503 20.0404 8.274 20.6139 8.35125C20.4491 7.78218 20.3401 7.17424 20.3053 6.62917C19.4071 6.55824 18.4911 6.48047 17.5812 6.39745C17.1857 9.01752 16.8273 11.7103 16.5161 14.4009V14.4009ZM24.3064 15.3318L24.2689 15.3278L16.4338 14.4664L16.4381 14.4293C16.7518 11.7134 17.1133 8.9958 17.5129 6.35174L17.5181 6.31741L17.553 6.32056C18.4848 6.40533 19.4237 6.48503 20.3435 6.55754L20.3755 6.56016L20.3776 6.59239C20.4107 7.1576 20.5258 7.79444 20.7011 8.38487L20.7174 8.43952L20.6265 8.42779C20.0648 8.35247 19.3656 8.25807 18.9776 8.61362C18.5869 8.97233 18.5916 9.73861 18.5955 10.3544V10.3644C18.5963 10.5436 18.5974 10.7135 18.5872 10.8496C18.5779 10.9795 18.5599 11.1188 18.541 11.2663L18.5392 11.2799C18.463 11.8686 18.3769 12.5356 18.7394 12.9871C19.1687 13.5218 19.8597 13.4772 20.4785 13.3626C20.6529 13.3308 20.7778 13.2306 20.8309 13.0812C20.8922 12.9081 20.8456 12.6888 20.7146 12.5352C20.5887 12.3876 20.4049 12.3231 20.2093 12.3588C19.9995 12.3972 19.8444 12.3659 19.7357 12.2613C19.4385 11.9775 19.5484 11.1846 19.6213 10.6597C19.6423 10.51 19.6619 10.3683 19.6704 10.2546L19.7134 9.63509C19.701 9.56241 19.6959 9.45837 19.7443 9.42036C19.7917 9.38235 19.8923 9.41143 19.9685 9.4433L19.9814 9.44874L19.9946 9.44523C20.1883 9.39847 20.4706 9.4391 20.7195 9.47553C20.833 9.49235 20.9503 9.50951 21.049 9.51547C21.0733 9.51722 21.0976 9.51757 21.1239 9.51494L21.1484 9.51284L21.16 9.53473C21.6611 10.487 22.3128 10.9615 23.0523 10.9098L23.0873 10.9076L23.0917 10.9424C23.1881 11.69 23.7769 12.2755 24.5569 12.3995L24.5914 12.4046L24.3064 15.3318ZM6.73309 22.2385C9.25857 22.6615 11.8594 23.0323 14.4646 23.3407C14.6635 20.7575 14.914 18.1017 15.2089 15.4467L7.56961 14.6286C7.44805 15.6476 7.34699 16.7073 7.25766 17.6433L7.25661 17.6534C7.11264 19.1562 6.96394 20.7096 6.73309 22.2385V22.2385ZM14.5327 23.4239L14.4942 23.4192C11.8625 23.1081 9.2351 22.7335 6.68492 22.3054L6.64884 22.2993L6.65427 22.2634C6.88775 20.7251 7.03768 19.1601 7.18252 17.6464L7.18358 17.6363C7.27413 16.6885 7.37659 15.6145 7.50025 14.5834L7.50462 14.5468L7.54106 14.5508L15.2911 15.3805L15.2869 15.4178C14.9889 18.0976 14.736 20.7785 14.5355 23.3852L14.5327 23.4239ZM15.6426 23.4756C18.2299 23.763 20.8302 23.9897 23.3727 24.1499L24.1249 16.4271L16.3833 15.5756C16.0903 18.2265 15.8411 20.8841 15.6426 23.4756ZM23.4397 24.2282L23.4038 24.2263C20.837 24.0652 18.211 23.8362 15.5986 23.5455L15.5631 23.5416L15.5657 23.5057C15.7656 20.8899 16.0173 18.2067 16.3138 15.5306L16.3178 15.4939L24.206 16.3614L24.2025 16.3976L23.4397 24.2282ZM8.16039 4.23926C8.02359 4.23926 7.97017 4.27551 7.87261 4.34172L7.84354 4.36221C7.6838 4.4419 7.66068 4.65366 7.64825 4.76733C7.64492 4.78537 7.64299 4.79553 7.64212 4.80604C7.42458 7.50387 6.86725 11.571 6.37543 15.1595L6.37316 15.1772C5.59654 20.8431 5.30632 23.1554 5.56817 23.2004C11.4646 24.2149 17.6018 24.9188 23.8095 25.2928C23.8209 25.2933 23.8331 25.2935 23.845 25.2935C23.9987 25.2935 24.1251 25.2332 24.2111 25.1194L24.2186 25.1119C24.3419 25.0204 24.4152 24.8892 24.4302 24.7327L25.6599 12.1366C25.7479 11.9641 25.7218 11.7341 25.595 11.5637C25.4715 11.3983 25.2839 11.3269 25.0799 11.3673L25.0732 11.3687L25.0662 11.3675C24.5611 11.2805 24.2489 11.1232 24.1389 10.9006C24.058 10.7371 24.0827 10.5359 24.2141 10.2847C24.2826 10.1055 24.2265 9.90763 24.0659 9.77241C23.885 9.62021 23.6317 9.58956 23.4501 9.69797C22.909 10.0169 22.3479 9.50706 22.1013 9.15501C21.8813 8.84079 21.7432 8.44968 21.6269 8.07346C21.4467 7.49266 21.3779 6.87106 21.4099 6.11756C21.4233 5.80107 21.1942 5.638 20.9612 5.61716L20.9468 5.61295C20.8813 5.57722 20.8083 5.55603 20.73 5.55008C16.7059 5.23919 12.6039 4.8127 8.53836 4.28182C8.36076 4.25292 8.24498 4.23926 8.16039 4.23926V4.23926ZM23.845 25.3679C23.8319 25.3679 23.8186 25.3676 23.8055 25.3669C17.5948 24.9929 11.4548 24.2886 5.55556 23.2735C5.24712 23.2204 5.35151 22.084 6.29942 15.1672L6.30205 15.1493C6.79352 11.5619 7.35067 7.49582 7.56803 4.80009C7.56925 4.78555 7.57171 4.77259 7.57451 4.7598C7.58835 4.63124 7.61444 4.39339 7.80571 4.29846L7.83023 4.28042C8.01816 4.15256 8.09418 4.13417 8.54904 4.20843C12.6123 4.73896 16.7128 5.16545 20.736 5.47564C20.822 5.48264 20.9025 5.50559 20.9756 5.54395C21.2325 5.57039 21.4993 5.76061 21.4842 6.12054C21.4525 6.86545 21.5203 7.47883 21.6979 8.05139C21.8124 8.42183 21.948 8.80664 22.162 9.1128C22.3939 9.44348 22.9182 9.92584 23.4123 9.63422C23.6203 9.50969 23.9092 9.54367 24.1137 9.71549C24.2992 9.8719 24.3637 10.1017 24.2817 10.3152C24.1603 10.5476 24.136 10.727 24.2055 10.8676C24.3039 11.0669 24.5956 11.21 25.0721 11.2932C25.3026 11.2487 25.5147 11.3316 25.6545 11.5195C25.7964 11.7099 25.826 11.9679 25.7293 12.1637L24.5043 24.7395C24.4871 24.9164 24.4052 25.0642 24.267 25.1686C24.1678 25.297 24.0183 25.3679 23.845 25.3679" fill="white"/>
<path d="M14.013 7.495C13.5074 7.29445 12.9077 7.25785 12.3277 7.22247C12.124 7.21003 11.9249 7.1976 11.7371 7.17833C11.6355 7.16817 11.5233 7.15013 11.4056 7.13139C10.9511 7.05975 10.3848 6.96955 10.0049 7.24734C9.60135 7.54282 9.54969 8.14043 9.50817 8.62069C9.49732 8.74417 9.48733 8.86152 9.47192 8.96591C9.43724 9.20271 9.39363 9.44337 9.34966 9.6856C9.25806 10.1916 9.1633 10.7144 9.14737 11.2222C9.13055 11.7653 9.35404 12.1218 9.83115 12.3121C10.2291 12.471 10.7467 12.4866 11.2033 12.5003C11.3639 12.505 11.5187 12.5095 11.6604 12.52C11.6765 12.5213 11.6923 12.522 11.7079 12.522C11.8788 12.522 12.0207 12.4507 12.1105 12.3184C12.2221 12.1547 12.2347 11.9154 12.1417 11.7228C12.0528 11.5376 11.8815 11.4226 11.6722 11.407C11.603 11.4021 11.4884 11.4033 11.3437 11.4059C11.0567 11.4096 10.4608 11.4185 10.3615 11.3266C10.2322 11.2069 10.2585 11.0497 10.3119 10.8027C10.3268 10.734 10.3421 10.6638 10.3522 10.5929C10.3948 10.2942 10.4389 9.99579 10.4829 9.69716L10.5498 9.24282C10.558 9.1866 10.5638 9.09832 10.5705 8.99551C10.586 8.7566 10.6148 8.31155 10.7123 8.22572C10.9108 8.0518 11.9331 8.24517 12.4819 8.34868C12.6633 8.38266 12.8201 8.41261 12.9175 8.42469L13.0201 8.43748C13.5471 8.50141 13.5471 8.50141 13.524 9.00479C13.511 9.28345 13.4205 9.59312 13.3331 9.89227C13.2897 10.0401 13.2471 10.1856 13.2149 10.3231C13.1315 10.6811 13.3716 10.9348 13.6519 11.0001C13.902 11.0584 14.209 10.9624 14.2905 10.6132C14.326 10.4612 14.3791 10.2841 14.4353 10.0967C14.7106 9.17854 15.0877 7.92131 14.013 7.495Z" fill="white"/>
<path d="M10.707 7.09553C10.4574 7.09553 10.218 7.13914 10.0288 7.27716C9.63873 7.563 9.58794 8.15116 9.54713 8.62406C9.5361 8.75105 9.52594 8.86717 9.51052 8.97156C9.47585 9.20819 9.43153 9.4534 9.38862 9.69002C9.29649 10.198 9.20226 10.7192 9.18632 11.2235C9.17038 11.7491 9.38634 12.0941 9.84681 12.2777C10.2393 12.4344 10.7532 12.4495 11.2065 12.4632C11.3528 12.4675 11.5186 12.4723 11.665 12.483C11.6806 12.4844 11.6955 12.4851 11.7099 12.4851C11.8698 12.4851 11.9985 12.4203 12.0819 12.2975C12.1863 12.1444 12.1977 11.92 12.1103 11.7393C12.0271 11.5659 11.8672 11.4585 11.6713 11.4443C11.6069 11.4398 11.499 11.4399 11.3464 11.4433L11.3303 11.4434C10.9021 11.4487 10.4383 11.4466 10.3383 11.3538C10.1868 11.214 10.229 11.0198 10.2777 10.7949C10.2936 10.7215 10.3076 10.6551 10.3174 10.5877C10.3539 10.3318 10.3915 10.0759 10.4294 9.81963L10.515 9.23744C10.5227 9.18489 10.5281 9.10187 10.5346 9.00554L10.5355 8.99328C10.5584 8.63877 10.5893 8.28655 10.6898 8.19792C10.8847 8.02733 11.7179 8.16657 12.484 8.31089L12.517 8.31702C12.6863 8.3489 12.8326 8.37675 12.924 8.38796L13.0265 8.40057C13.5719 8.46695 13.587 8.48377 13.5631 9.00676C13.5498 9.28963 13.4588 9.6014 13.3707 9.90283C13.3311 10.0377 13.2861 10.1908 13.2531 10.3318C13.2169 10.487 13.2431 10.6315 13.3291 10.7497C13.4052 10.8541 13.5267 10.9322 13.6624 10.9637C13.8961 11.0185 14.1807 10.929 14.2564 10.6048C14.2921 10.4507 14.3454 10.2738 14.4018 10.086C14.6729 9.18139 15.044 7.94325 14.0015 7.52973C13.5013 7.33146 12.9048 7.29485 12.328 7.25982C12.1414 7.24826 11.9306 7.23547 11.7353 7.21533C11.6377 7.20552 11.5319 7.18871 11.4195 7.17102L11.4018 7.16804C11.1837 7.13389 10.9408 7.09553 10.707 7.09553ZM11.7099 12.5593C11.6934 12.5593 11.6763 12.5586 11.6591 12.557C11.5148 12.5465 11.3498 12.5416 11.2042 12.5374C10.7448 12.5239 10.2241 12.5082 9.81931 12.3469C9.32627 12.15 9.09489 11.7818 9.11223 11.2212C9.12817 10.7113 9.22293 10.1874 9.31471 9.68109C9.35814 9.44061 9.40263 9.19628 9.43714 8.96052C9.45202 8.85841 9.46218 8.74351 9.47269 8.62196C9.51525 8.13014 9.5678 7.52289 9.98501 7.21743C10.3761 6.93141 10.9492 7.02162 11.4095 7.09413L11.4312 7.09763C11.5424 7.11532 11.6474 7.13179 11.7428 7.14177C11.9365 7.16139 12.1467 7.17417 12.332 7.18556C12.9153 7.22111 13.5174 7.25807 14.0287 7.46054C15.1348 7.89929 14.7522 9.17543 14.4729 10.1069C14.4168 10.2938 14.3639 10.47 14.3285 10.6216C14.2413 10.9961 13.9127 11.0984 13.6455 11.0364C13.4927 11.0007 13.3554 10.9122 13.2689 10.7931C13.1701 10.6574 13.1395 10.492 13.1808 10.315C13.2142 10.1715 13.2594 10.0177 13.2994 9.88199C13.3862 9.58476 13.4763 9.27755 13.4887 9.00326C13.5102 8.53421 13.5102 8.53421 13.0175 8.47431L12.9147 8.4617C12.821 8.45014 12.6737 8.42229 12.5031 8.39006L12.477 8.38516C11.9679 8.2897 10.9231 8.09353 10.7389 8.25362C10.653 8.32946 10.6226 8.79728 10.6096 8.99678L10.6087 9.01062C10.6022 9.10835 10.5966 9.19277 10.5884 9.24847L10.5027 9.83067C10.4651 10.0862 10.4274 10.3423 10.3908 10.5982C10.381 10.6681 10.3667 10.7357 10.3502 10.8105C10.298 11.0516 10.274 11.1933 10.3887 11.2993C10.4754 11.3797 11.0958 11.3716 11.3295 11.3692L11.3454 11.3688C11.5037 11.3657 11.6088 11.3653 11.6768 11.3701C11.8997 11.3867 12.0821 11.5093 12.1774 11.7067C12.2756 11.9109 12.262 12.1652 12.1434 12.3393C12.0469 12.4812 11.8929 12.5593 11.7099 12.5593" fill="white"/>
<path d="M10.3473 21.5535C10.5112 21.557 10.6692 21.56 10.8142 21.5693C10.8286 21.5703 10.8426 21.571 10.8564 21.571C11.1783 21.571 11.3414 21.3234 11.3568 21.084C11.3752 20.7976 11.1948 20.4804 10.8245 20.4564C10.6997 20.448 10.5727 20.4433 10.4455 20.4384C10.1971 20.4287 9.94038 20.4186 9.69745 20.3837C9.49707 20.3548 9.39269 20.3205 9.35836 20.2728C9.32105 20.2203 9.34259 20.1068 9.37535 19.935C9.39146 19.8511 9.41003 19.7532 9.42631 19.6388C9.48709 19.2146 9.5603 18.7744 9.6442 18.3308C9.65418 18.2782 9.66364 18.2005 9.67433 18.1106C9.70235 17.8782 9.75419 17.4457 9.86279 17.361C9.96998 17.276 10.4014 17.3398 10.6327 17.3736C10.7207 17.3864 10.7972 17.3976 10.8508 17.402C11.3829 17.4445 11.7905 17.4852 12.1723 17.5333C12.3907 17.561 12.5305 17.6272 12.6 17.7356C12.7261 17.9334 12.6198 18.267 12.5075 18.6203C12.4266 18.8741 12.3431 19.137 12.3424 19.371C12.3419 19.5733 12.4321 19.7372 12.5967 19.833C12.7757 19.9369 13.0172 19.9378 13.1973 19.8346C13.3637 19.7392 13.4555 19.5749 13.4562 19.3715C13.4569 19.1097 13.5458 18.8172 13.6402 18.5079C13.8578 17.7941 14.1046 16.9849 13.0964 16.5812C12.5841 16.3765 11.9423 16.3458 11.3759 16.3187C11.1988 16.3101 11.0265 16.302 10.8634 16.2889C10.7681 16.281 10.6639 16.268 10.5545 16.254C10.0994 16.1966 9.53263 16.1248 9.15571 16.4048C8.76653 16.6937 8.68245 17.2769 8.61485 17.7459C8.59943 17.8531 8.58472 17.9554 8.56738 18.0476C8.54198 18.1819 8.51484 18.3182 8.48751 18.4558C8.36929 19.0519 8.24686 19.668 8.23477 20.2662C8.20955 21.5085 9.39496 21.5334 10.3473 21.5535Z" fill="white"/>
<path d="M9.9187 16.2382C9.64687 16.2382 9.38221 16.2828 9.17799 16.4347C8.80107 16.7148 8.71822 17.2892 8.65184 17.7509C8.63503 17.8681 8.62084 17.9648 8.60402 18.0545C8.58178 18.1723 8.55813 18.2916 8.53414 18.412L8.52416 18.4631C8.40558 19.06 8.28403 19.6732 8.27212 20.2668C8.24742 21.472 9.41216 21.4963 10.3482 21.5161L10.3606 21.5165C10.5221 21.52 10.6743 21.5231 10.8165 21.5322C10.8302 21.5329 10.8433 21.5336 10.8564 21.5336C11.1565 21.5336 11.3054 21.3067 11.3199 21.0818C11.3288 20.9425 11.2877 20.8012 11.2069 20.694C11.1433 20.6096 11.0249 20.5066 10.8223 20.4936C10.7058 20.4857 10.5881 20.4812 10.4697 20.4764L10.444 20.4756C10.1937 20.4658 9.93639 20.4552 9.69223 20.4204C9.47522 20.3889 9.36978 20.3524 9.32827 20.2941C9.28168 20.229 9.30322 20.1155 9.33895 19.9279C9.35542 19.8415 9.37363 19.7457 9.38975 19.6334C9.45122 19.204 9.52461 18.7631 9.60781 18.3239C9.61727 18.2743 9.62602 18.2021 9.63758 18.1061C9.67734 17.7765 9.72884 17.4183 9.83988 17.3316C9.94987 17.2446 10.2928 17.2861 10.634 17.3364L10.6675 17.3411C10.7421 17.3516 10.8069 17.3609 10.8538 17.3647C11.3851 17.4073 11.7932 17.4479 12.1771 17.4964C12.4071 17.5255 12.5556 17.5972 12.6314 17.7156C12.7668 17.9277 12.6582 18.2692 12.5431 18.6309C12.4629 18.8824 12.3803 19.1418 12.3797 19.3707C12.379 19.5594 12.4627 19.7121 12.6155 19.8009C12.7838 19.8986 13.0101 19.899 13.1791 19.8023C13.3331 19.7138 13.4182 19.5609 13.4191 19.3718C13.4198 19.1033 13.5096 18.8087 13.6049 18.4969C13.8177 17.7982 14.0591 17.0066 13.0826 16.6158C12.5757 16.413 11.9375 16.3823 11.3742 16.3557L11.3386 16.3539C11.1714 16.3459 11.0134 16.338 10.8607 16.3261C10.7671 16.3184 10.6687 16.3061 10.5499 16.2911C10.3522 16.266 10.1333 16.2382 9.9187 16.2382ZM10.8564 21.6079C10.8419 21.6079 10.8272 21.6074 10.8121 21.6063C10.6713 21.5974 10.5198 21.5942 10.359 21.5907L10.3466 21.5906C9.37766 21.5701 8.17175 21.5447 8.19768 20.2652C8.20976 19.6653 8.33202 19.0486 8.45059 18.4526L8.46145 18.3976C8.4851 18.2774 8.50892 18.1583 8.53081 18.0406C8.54763 17.9524 8.56164 17.8566 8.57828 17.7404C8.64659 17.2649 8.73188 16.6734 9.13368 16.3748C9.52303 16.0858 10.0979 16.1587 10.5592 16.2173C10.6771 16.2324 10.7748 16.2443 10.8666 16.2518C11.0179 16.2637 11.1756 16.2714 11.3423 16.2797L11.3779 16.2814C11.9468 16.3088 12.5918 16.3392 13.1103 16.5466C14.1498 16.9631 13.8981 17.7893 13.6762 18.5183C13.5823 18.825 13.494 19.1145 13.4933 19.3718C13.4926 19.5888 13.394 19.7646 13.2159 19.8667C13.0253 19.9764 12.7689 19.9755 12.5782 19.8652C12.4014 19.7625 12.3048 19.587 12.3053 19.3707C12.306 19.1302 12.3906 18.8652 12.4724 18.6088C12.582 18.2636 12.6854 17.9385 12.5687 17.7557C12.5057 17.6569 12.3745 17.5963 12.1676 17.5702C11.7849 17.522 11.378 17.4814 10.8479 17.439C10.7997 17.435 10.7335 17.4257 10.6571 17.4146L10.6277 17.4104C10.4308 17.3819 9.98 17.3159 9.88594 17.39C9.78961 17.4654 9.73479 17.9198 9.71132 18.114C9.69959 18.2126 9.69065 18.2857 9.68102 18.3377C9.59782 18.7759 9.52461 19.2155 9.46313 19.6438C9.44702 19.758 9.42863 19.8545 9.41234 19.9396C9.38309 20.0925 9.3605 20.2114 9.38869 20.2512C9.41514 20.2885 9.52093 20.3206 9.70291 20.3468C9.94322 20.3812 10.1984 20.3913 10.4454 20.4013L10.4727 20.4024C10.5914 20.4067 10.7102 20.4115 10.827 20.4193C11.0579 20.4341 11.1933 20.5525 11.2663 20.6495C11.3576 20.7703 11.404 20.9297 11.394 21.0865C11.3779 21.3377 11.2027 21.6079 10.8564 21.6079" fill="white"/>
<path d="M19.1951 22.5279C19.359 22.5314 19.517 22.5344 19.6622 22.5437C19.6764 22.5447 19.6904 22.5454 19.7042 22.5454C20.026 22.5454 20.1891 22.2977 20.2046 22.0583C20.223 21.7719 20.0428 21.4548 19.6724 21.4308C19.5473 21.4223 19.4205 21.4176 19.2933 21.4127C19.045 21.4031 18.7882 21.3929 18.5453 21.3581C18.3449 21.3292 18.2403 21.2948 18.2062 21.2472C18.1689 21.1947 18.1906 21.0812 18.2232 20.9097C18.2393 20.8254 18.2579 20.7275 18.2743 20.6132C18.3347 20.1903 18.408 19.75 18.4919 19.3053C18.5018 19.2522 18.5113 19.1743 18.5222 19.0845C18.5502 18.852 18.6022 18.4201 18.7104 18.3353C18.8178 18.2502 19.2478 18.3141 19.4787 18.3476C19.5675 18.3607 19.6445 18.3719 19.6985 18.3763C20.2311 18.4189 20.6387 18.4595 21.02 18.5077C21.2386 18.5354 21.3785 18.6016 21.4477 18.71C21.574 18.9077 21.4678 19.2414 21.3552 19.5943C21.2743 19.8485 21.1907 20.1114 21.1902 20.3454C21.1895 20.5477 21.2799 20.7116 21.4445 20.8074C21.6235 20.9118 21.8651 20.9125 22.0453 20.8086C22.2113 20.7135 22.3031 20.5492 22.3038 20.3459C22.3045 20.084 22.3937 19.7919 22.4881 19.4824C22.7056 18.7685 22.9524 17.9593 21.9441 17.5556C21.4319 17.3508 20.79 17.3202 20.2236 17.293C20.0467 17.2844 19.8741 17.2764 19.7112 17.2632C19.616 17.2554 19.5118 17.2424 19.4025 17.2284C18.9474 17.1709 18.381 17.0988 18.0035 17.3792C17.6144 17.668 17.5303 18.2513 17.4627 18.72C17.4473 18.8275 17.4326 18.9298 17.415 19.0219C17.3896 19.1568 17.3625 19.2936 17.335 19.4312C17.2169 20.0269 17.0945 20.6428 17.0824 21.2405C17.0572 22.4829 18.2428 22.5078 19.1951 22.5279Z" fill="white"/>
<path d="M18.7665 17.2125C18.4945 17.2125 18.23 17.2572 18.0256 17.4091C17.6491 17.6888 17.5661 18.2631 17.4997 18.7248C17.4827 18.842 17.4687 18.9385 17.4517 19.0288C17.4287 19.1502 17.4044 19.2732 17.3799 19.3968L17.3716 19.4383C17.2534 20.0331 17.1317 20.6472 17.1198 21.2413C17.0953 22.4465 18.26 22.4709 19.1958 22.4905L19.2083 22.4908C19.3699 22.4943 19.5223 22.4975 19.6645 22.5066C19.9873 22.5287 20.1525 22.2907 20.1677 22.0558C20.1849 21.7874 20.0162 21.49 19.6703 21.468C19.5612 21.4604 19.4512 21.4561 19.3407 21.4517L19.2918 21.4496C19.0554 21.4403 18.7874 21.4303 18.5401 21.3948C18.3229 21.3632 18.2174 21.3266 18.1759 21.2687C18.1297 21.2037 18.1509 21.0912 18.1863 20.9056C18.2038 20.8143 18.2216 20.7192 18.2376 20.6078C18.2977 20.1876 18.3709 19.7471 18.4555 19.2984C18.4649 19.2478 18.4742 19.1728 18.4856 19.08C18.5248 18.7512 18.5761 18.3934 18.6875 18.306C18.7963 18.2198 19.1343 18.2598 19.4708 18.309L19.4841 18.3107C19.5727 18.3237 19.6491 18.3351 19.7015 18.3391C20.2329 18.3817 20.641 18.4223 21.0247 18.4708C21.2551 18.4999 21.4036 18.5715 21.4791 18.6899C21.6148 18.9024 21.506 19.2439 21.3908 19.6054C21.3106 19.8568 21.2279 20.1165 21.2274 20.3453C21.2269 20.5337 21.3106 20.6865 21.4635 20.7753C21.6316 20.8737 21.8583 20.8737 22.0268 20.7765C22.1809 20.6882 22.266 20.5349 22.2667 20.3458C22.2676 20.0773 22.3573 19.783 22.4526 19.4716C22.6655 18.7726 22.9069 17.9809 21.9303 17.5902C21.4234 17.3873 20.7851 17.3569 20.222 17.3301L20.1894 17.3283C20.0211 17.3203 19.8619 17.3124 19.7083 17.3001C19.615 17.2928 19.5123 17.28 19.3978 17.2654C19.2002 17.2402 18.9811 17.2125 18.7665 17.2125ZM19.7043 22.5823C19.6897 22.5823 19.675 22.5817 19.66 22.5809C19.5191 22.5718 19.3675 22.5686 19.2069 22.5651L19.1944 22.5649C18.2253 22.5444 17.0194 22.519 17.0453 21.2396C17.0574 20.6392 17.18 20.0223 17.2984 19.4252L17.307 19.3823C17.3315 19.259 17.3557 19.1362 17.3786 19.015C17.3953 18.9262 17.4095 18.8304 17.4259 18.7146C17.4946 18.2389 17.5801 17.6476 17.9813 17.3492C18.3705 17.0605 18.9454 17.1327 19.4069 17.1917C19.5209 17.2062 19.6223 17.2187 19.7143 17.2258C19.8666 17.2381 20.0253 17.246 20.1929 17.2544L20.2257 17.2558C20.7946 17.2831 21.4395 17.3136 21.9579 17.521C22.9978 17.9375 22.7459 18.7637 22.5238 19.493C22.4301 19.7993 22.3419 20.0887 22.341 20.3458C22.3405 20.5631 22.2419 20.7386 22.0637 20.8408C21.8728 20.9511 21.6166 20.9502 21.426 20.8397C21.2495 20.7369 21.1526 20.5614 21.1531 20.3453C21.1536 20.105 21.2382 19.8398 21.32 19.5828C21.4299 19.2383 21.5334 18.9131 21.4164 18.73C21.3537 18.6314 21.2223 18.5706 21.0155 18.5445C20.6328 18.496 20.2259 18.4557 19.6955 18.4134C19.6405 18.4088 19.5633 18.3974 19.4738 18.3843L19.4603 18.3824C19.2543 18.3528 18.8266 18.2909 18.7336 18.3643C18.6369 18.44 18.5826 18.8945 18.5592 19.0886C18.5474 19.1861 18.5383 19.259 18.5287 19.3121C18.4441 19.7596 18.371 20.1988 18.3111 20.6183C18.295 20.7315 18.2768 20.8278 18.2595 20.9166C18.2307 21.0683 18.2085 21.1862 18.2365 21.2257C18.263 21.2629 18.3688 21.2947 18.5507 21.3212C18.7942 21.3562 19.0485 21.3657 19.2948 21.3753L19.3436 21.3774C19.4549 21.3818 19.5656 21.3864 19.675 21.3937C20.0691 21.4193 20.2613 21.7561 20.2416 22.0605C20.2255 22.3118 20.0504 22.5823 19.7043 22.5823" fill="white"/>
</svg>
